<?xml version="1.0" encoding="iso-8859-1"?><svg xmlns="http://www.w3.org/2000/svg" width="50" height="50" viewBox="0 0 50 50">
    <defs>
        <clipPath id="827p0o0hua">
            <path fill="#fff" d="M0 0H50V50H0z" transform="translate(-.048 -.048)"/>
        </clipPath>
    </defs>
    <g>
        <g clip-path="url(#827p0o0hua)" transform="translate(-780 -1204) translate(780.048 1204.048)">
            <g>
                <path fill="#213565" d="M25.058 0a25.058 25.058 0 1 0 25.059 25.058A24.784 24.784 0 0 0 25.058 0zm0 48.08A23.021 23.021 0 1 1 48.08 25.058 22.869 22.869 0 0 1 25.058 48.08z" transform="translate(0 .001)"/>
                <path fill="#ef6c00" d="M29.7 28.835a6.683 6.683 0 0 0-2.852-5.3 8.773 8.773 0 0 0-4.485-1.835h-.611v-9.367l.815.2c2.648.611 4.482 2.445 4.482 4.278a1.426 1.426 0 0 0 2.852 0 6.683 6.683 0 0 0-2.852-5.3 8.773 8.773 0 0 0-4.482-1.834h-.611V6.832a1.426 1.426 0 0 0-2.852 0v2.649h-.611a15.062 15.062 0 0 0-4.482 2.037 6.683 6.683 0 0 0-2.852 5.3 6.683 6.683 0 0 0 2.852 5.3 8.773 8.773 0 0 0 4.482 1.834h.607v9.168l-.815-.2c-2.648-.611-4.482-2.445-4.482-4.278a1.426 1.426 0 1 0-2.852 0 6.683 6.683 0 0 0 2.852 5.3 8.773 8.773 0 0 0 4.482 1.834h.615v2.634a1.426 1.426 0 0 0 2.852 0v-2.648h.611a8.773 8.773 0 0 0 4.482-1.834 6.328 6.328 0 0 0 2.855-5.093zM19.1 21.5l-.815-.2c-2.648-.611-4.482-2.445-4.482-4.278 0-2.037 1.834-3.667 4.482-4.278l.815-.2zm3.463 11.612l-.815.2v-9.163l.815.2c2.648.611 4.482 2.445 4.482 4.278.004 2.041-1.829 3.873-4.478 4.486z" transform="translate(0 .001) translate(4.732 2.335)"/>
            </g>
        </g>
    </g>
</svg>
