<svg xmlns="http://www.w3.org/2000/svg" width="54.288" height="119.88" viewBox="0 0 54.288 119.88"><defs><style>.a{opacity:0.2;}.b{fill:#1f3666;}</style></defs><g class="a" transform="translate(54.288) rotate(90)"><g transform="translate(0 0)"><path class="b" d="M5.043,2.521A2.521,2.521,0,1,1,2.521,0,2.521,2.521,0,0,1,5.043,2.521" transform="translate(114.837)"/><path class="b" d="M5.043,2.521A2.521,2.521,0,1,1,2.521,0,2.521,2.521,0,0,1,5.043,2.521" transform="translate(114.837 16.415)"/><path class="b" d="M5.043,2.521A2.521,2.521,0,1,1,2.521,0,2.521,2.521,0,0,1,5.043,2.521" transform="translate(114.837 32.83)"/><path class="b" d="M5.043,2.521A2.521,2.521,0,1,1,2.521,0,2.521,2.521,0,0,1,5.043,2.521" transform="translate(114.837 49.245)"/><path class="b" d="M5.043,2.521A2.521,2.521,0,1,1,2.521,0,2.521,2.521,0,0,1,5.043,2.521" transform="translate(100.581)"/><path class="b" d="M5.043,2.521A2.521,2.521,0,1,1,2.521,0,2.521,2.521,0,0,1,5.043,2.521" transform="translate(100.581 16.415)"/><path class="b" d="M5.043,2.521A2.521,2.521,0,1,1,2.521,0,2.521,2.521,0,0,1,5.043,2.521" transform="translate(100.581 32.83)"/><path class="b" d="M5.043,2.521A2.521,2.521,0,1,1,2.521,0,2.521,2.521,0,0,1,5.043,2.521" transform="translate(100.581 49.245)"/><path class="b" d="M5.043,2.521A2.521,2.521,0,1,1,2.521,0,2.522,2.522,0,0,1,5.043,2.521" transform="translate(86.213)"/><path class="b" d="M5.043,2.521A2.521,2.521,0,1,1,2.521,0,2.522,2.522,0,0,1,5.043,2.521" transform="translate(86.213 16.415)"/><path class="b" d="M5.043,2.521A2.521,2.521,0,1,1,2.521,0,2.522,2.522,0,0,1,5.043,2.521" transform="translate(86.213 32.83)"/><path class="b" d="M5.043,2.521A2.521,2.521,0,1,1,2.521,0,2.522,2.522,0,0,1,5.043,2.521" transform="translate(86.213 49.245)"/><path class="b" d="M5.043,2.521A2.521,2.521,0,1,1,2.521,0,2.522,2.522,0,0,1,5.043,2.521" transform="translate(71.844)"/><path class="b" d="M5.043,2.521A2.521,2.521,0,1,1,2.521,0,2.522,2.522,0,0,1,5.043,2.521" transform="translate(71.844 16.415)"/><path class="b" d="M5.043,2.521A2.521,2.521,0,1,1,2.521,0,2.522,2.522,0,0,1,5.043,2.521" transform="translate(71.844 32.83)"/><path class="b" d="M5.043,2.521A2.521,2.521,0,1,1,2.521,0,2.522,2.522,0,0,1,5.043,2.521" transform="translate(71.844 49.245)"/><path class="b" d="M5.043,2.521A2.521,2.521,0,1,1,2.521,0,2.521,2.521,0,0,1,5.043,2.521" transform="translate(57.475)"/><path class="b" d="M5.043,2.521A2.521,2.521,0,1,1,2.521,0,2.521,2.521,0,0,1,5.043,2.521" transform="translate(57.475 16.415)"/><path class="b" d="M5.043,2.521A2.521,2.521,0,1,1,2.521,0,2.521,2.521,0,0,1,5.043,2.521" transform="translate(57.475 32.83)"/><path class="b" d="M5.043,2.521A2.521,2.521,0,1,1,2.521,0,2.521,2.521,0,0,1,5.043,2.521" transform="translate(57.475 49.245)"/><path class="b" d="M5.043,2.521A2.521,2.521,0,1,1,2.521,0,2.521,2.521,0,0,1,5.043,2.521" transform="translate(43.106)"/><path class="b" d="M5.043,2.521A2.521,2.521,0,1,1,2.521,0,2.521,2.521,0,0,1,5.043,2.521" transform="translate(43.106 16.415)"/><path class="b" d="M5.043,2.521A2.521,2.521,0,1,1,2.521,0,2.521,2.521,0,0,1,5.043,2.521" transform="translate(43.106 32.83)"/><path class="b" d="M5.043,2.521A2.521,2.521,0,1,1,2.521,0,2.521,2.521,0,0,1,5.043,2.521" transform="translate(43.106 49.245)"/><path class="b" d="M5.043,2.521A2.521,2.521,0,1,1,2.521,0,2.522,2.522,0,0,1,5.043,2.521" transform="translate(28.738)"/><path class="b" d="M5.043,2.521A2.521,2.521,0,1,1,2.521,0,2.522,2.522,0,0,1,5.043,2.521" transform="translate(28.738 16.415)"/><path class="b" d="M5.043,2.521A2.521,2.521,0,1,1,2.521,0,2.522,2.522,0,0,1,5.043,2.521" transform="translate(28.738 32.83)"/><path class="b" d="M5.043,2.521A2.521,2.521,0,1,1,2.521,0,2.522,2.522,0,0,1,5.043,2.521" transform="translate(28.738 49.245)"/><path class="b" d="M5.043,2.521A2.521,2.521,0,1,1,2.521,0,2.521,2.521,0,0,1,5.043,2.521" transform="translate(14.481)"/><path class="b" d="M5.043,2.521A2.521,2.521,0,1,1,2.521,0,2.521,2.521,0,0,1,5.043,2.521" transform="translate(14.481 16.415)"/><path class="b" d="M5.043,2.521A2.521,2.521,0,1,1,2.521,0,2.521,2.521,0,0,1,5.043,2.521" transform="translate(14.481 32.83)"/><path class="b" d="M5.043,2.521A2.521,2.521,0,1,1,2.521,0,2.521,2.521,0,0,1,5.043,2.521" transform="translate(14.481 49.245)"/><path class="b" d="M5.043,2.521A2.521,2.521,0,1,1,2.521,0,2.521,2.521,0,0,1,5.043,2.521"/><path class="b" d="M5.043,2.521A2.521,2.521,0,1,1,2.521,0,2.521,2.521,0,0,1,5.043,2.521" transform="translate(0 16.415)"/><path class="b" d="M5.043,2.521A2.521,2.521,0,1,1,2.521,0,2.521,2.521,0,0,1,5.043,2.521" transform="translate(0 32.83)"/><path class="b" d="M5.043,2.521A2.521,2.521,0,1,1,2.521,0,2.521,2.521,0,0,1,5.043,2.521" transform="translate(0 49.245)"/></g></g></svg>