<svg xmlns="http://www.w3.org/2000/svg" width="16.03" height="16" viewBox="0 0 16.03 16"><defs><style>.a,.b{fill:none;}.a{stroke:#ef6c00;stroke-linecap:round;stroke-linejoin:round;}</style></defs><g transform="translate(-906 -663.059)"><path class="a" d="M12.139,4.273a3.467,3.467,0,0,1,2.739,2.739M12.139,1.5a6.24,6.24,0,0,1,5.512,5.505m-.693,5.533v2.08a1.387,1.387,0,0,1-1.512,1.387,13.722,13.722,0,0,1-5.984-2.129A13.521,13.521,0,0,1,5.3,9.716,13.722,13.722,0,0,1,3.173,3.7a1.387,1.387,0,0,1,1.38-1.512h2.08A1.387,1.387,0,0,1,8.02,3.386a8.9,8.9,0,0,0,.485,1.948A1.387,1.387,0,0,1,8.193,6.8l-.881.881a11.094,11.094,0,0,0,4.16,4.16l.881-.881a1.387,1.387,0,0,1,1.463-.312,8.9,8.9,0,0,0,1.948.485A1.387,1.387,0,0,1,16.958,12.539Z" transform="translate(903.826 662.494)"/><rect class="b" width="16" height="16" transform="translate(906 663.059)"/></g></svg>