<svg xmlns="http://www.w3.org/2000/svg" width="59.165" height="99.454" viewBox="0 0 59.165 99.454"><defs><style>.a{fill:#fff;}</style></defs><g transform="translate(59.165) rotate(90)"><g transform="translate(0)"><path class="a" d="M5.5,2.748A2.748,2.748,0,1,1,2.748,0,2.748,2.748,0,0,1,5.5,2.748" transform="translate(93.958)"/><path class="a" d="M5.5,2.748A2.748,2.748,0,1,1,2.748,0,2.748,2.748,0,0,1,5.5,2.748" transform="translate(93.958 17.89)"/><path class="a" d="M5.5,2.748A2.748,2.748,0,1,1,2.748,0,2.748,2.748,0,0,1,5.5,2.748" transform="translate(93.958 35.779)"/><path class="a" d="M5.5,2.748A2.748,2.748,0,1,1,2.748,0,2.748,2.748,0,0,1,5.5,2.748" transform="translate(93.958 53.669)"/><path class="a" d="M5.5,2.748A2.748,2.748,0,1,1,2.748,0,2.748,2.748,0,0,1,5.5,2.748" transform="translate(78.175)"/><path class="a" d="M5.5,2.748A2.748,2.748,0,1,1,2.748,0,2.748,2.748,0,0,1,5.5,2.748" transform="translate(78.175 17.89)"/><path class="a" d="M5.5,2.748A2.748,2.748,0,1,1,2.748,0,2.748,2.748,0,0,1,5.5,2.748" transform="translate(78.175 35.779)"/><path class="a" d="M5.5,2.748A2.748,2.748,0,1,1,2.748,0,2.748,2.748,0,0,1,5.5,2.748" transform="translate(78.175 53.669)"/><path class="a" d="M5.5,2.748A2.748,2.748,0,1,1,2.748,0,2.748,2.748,0,0,1,5.5,2.748" transform="translate(62.638 0)"/><path class="a" d="M5.5,2.748A2.748,2.748,0,1,1,2.748,0,2.748,2.748,0,0,1,5.5,2.748" transform="translate(62.638 17.89)"/><path class="a" d="M5.5,2.748A2.748,2.748,0,1,1,2.748,0,2.748,2.748,0,0,1,5.5,2.748" transform="translate(62.638 35.779)"/><path class="a" d="M5.5,2.748A2.748,2.748,0,1,1,2.748,0,2.748,2.748,0,0,1,5.5,2.748" transform="translate(62.638 53.669)"/><path class="a" d="M5.5,2.748A2.748,2.748,0,1,1,2.748,0,2.748,2.748,0,0,1,5.5,2.748" transform="translate(46.979)"/><path class="a" d="M5.5,2.748A2.748,2.748,0,1,1,2.748,0,2.748,2.748,0,0,1,5.5,2.748" transform="translate(46.979 17.89)"/><path class="a" d="M5.5,2.748A2.748,2.748,0,1,1,2.748,0,2.748,2.748,0,0,1,5.5,2.748" transform="translate(46.979 35.779)"/><path class="a" d="M5.5,2.748A2.748,2.748,0,1,1,2.748,0,2.748,2.748,0,0,1,5.5,2.748" transform="translate(46.979 53.669)"/><path class="a" d="M5.5,2.748A2.748,2.748,0,1,1,2.748,0,2.748,2.748,0,0,1,5.5,2.748" transform="translate(31.32 0)"/><path class="a" d="M5.5,2.748A2.748,2.748,0,1,1,2.748,0,2.748,2.748,0,0,1,5.5,2.748" transform="translate(31.32 17.89)"/><path class="a" d="M5.5,2.748A2.748,2.748,0,1,1,2.748,0,2.748,2.748,0,0,1,5.5,2.748" transform="translate(31.32 35.779)"/><path class="a" d="M5.5,2.748A2.748,2.748,0,1,1,2.748,0,2.748,2.748,0,0,1,5.5,2.748" transform="translate(31.32 53.669)"/><path class="a" d="M5.5,2.748A2.748,2.748,0,1,1,2.748,0,2.748,2.748,0,0,1,5.5,2.748" transform="translate(15.66 0)"/><path class="a" d="M5.5,2.748A2.748,2.748,0,1,1,2.748,0,2.748,2.748,0,0,1,5.5,2.748" transform="translate(15.66 17.89)"/><path class="a" d="M5.5,2.748A2.748,2.748,0,1,1,2.748,0,2.748,2.748,0,0,1,5.5,2.748" transform="translate(15.66 35.779)"/><path class="a" d="M5.5,2.748A2.748,2.748,0,1,1,2.748,0,2.748,2.748,0,0,1,5.5,2.748" transform="translate(15.66 53.669)"/><path class="a" d="M5.5,2.748A2.748,2.748,0,1,1,2.748,0,2.748,2.748,0,0,1,5.5,2.748" transform="translate(0 0)"/><path class="a" d="M5.5,2.748A2.748,2.748,0,1,1,2.748,0,2.748,2.748,0,0,1,5.5,2.748" transform="translate(0 17.89)"/><path class="a" d="M5.5,2.748A2.748,2.748,0,1,1,2.748,0,2.748,2.748,0,0,1,5.5,2.748" transform="translate(0 35.779)"/><path class="a" d="M5.5,2.748A2.748,2.748,0,1,1,2.748,0,2.748,2.748,0,0,1,5.5,2.748" transform="translate(0 53.669)"/></g></g></svg>