<svg xmlns="http://www.w3.org/2000/svg" width="13.223" height="12" viewBox="0 0 13.223 12"><defs><style>.a{fill:#ef6c00;}</style></defs><path class="a" d="M14.971,7.529H10.629L9.31,3.681a.482.482,0,0,0-.9,0L7.093,7.529H2.722a.468.468,0,0,0-.472.462.332.332,0,0,0,.009.078.441.441,0,0,0,.2.326l3.568,2.458L4.655,14.743a.457.457,0,0,0,.162.519.462.462,0,0,0,.266.112.587.587,0,0,0,.3-.1l3.483-2.426,3.483,2.426a.561.561,0,0,0,.3.1.429.429,0,0,0,.263-.112.451.451,0,0,0,.162-.519l-1.369-3.891,3.539-2.481.086-.072a.48.48,0,0,0,.153-.309A.5.5,0,0,0,14.971,7.529Z" transform="translate(-2.25 -3.375)"/></svg>