<svg xmlns="http://www.w3.org/2000/svg" viewBox="0 0 383.765 101.882" xmlns:v="https://vecta.io/nano"><g fill-rule="evenodd" fill="#002e6e"><path d="M41.55 19.504c-.94-3.4-1.386-7.306-1.187-9.804a9.31 9.31 0 0 0-.2-2.398c-.3-2.834-2.058-5.946-5.722-6.48-.902-.184-1.907-.182-3.02.065-4.6 1.018-9.024 5.32-9.296 10.733-.23 4.504 4.492 12.932 1.876 16-1.37 1.604-7.785 1.6-10.394 2.28l6.02-.215c2.058-.074 3.802 1.155 4.622 3 .153.316.275.653.365 1.006v.001l.03.128.028.13.025.13h0c.008.044.015.088.02.133h0l.02.134.016.135.013.136.01.138a6.15 6.15 0 0 1 .008.561l-.015.46a6.27 6.27 0 0 1-.062.702h0l-.022.137-.025.136v.001l-.028.135-.03.134v.001l-.034.133-.036.132-.04.13-.042.13-.045.13-.048.13-.05.125-.045.106c-.55 1.376-1.54 2.5-2.764 3.17 2.475.336 4.337 2.38 4.443 4.974.012.178.015.36.01.545l-.014.458c-.1 2.83-2.312 5.236-5.088 5.643l.1.026c.072.02.144.04.215.065l.02.007a4.4 4.4 0 0 1 .439.173l.002.001a4.35 4.35 0 0 1 .407.211l.022.012.022.013.08.05.005.003a5.05 5.05 0 0 1 .288.197l.02.014c.06.045.12.092.178.14l.001.001.008.006a4.83 4.83 0 0 1 .793.846l.068.096c.15.213.282.44.398.677l.007.015.052.1.006.012c.03.07.06.14.1.2l.01.026.085.233.034.105c.018.057.036.115.052.174l.018.068.007.024.008.032.023.095.003.012.026.117.006.03.017.087.008.042c.012.066.022.13.03.197l.01.077.012.095.01.108v.023l.001.004.002.03.008.108.005.088.004.094.001.064.001.05v.126l-.003.134-.016.453c-.093 2.856-2.215 5.27-4.826 5.595a3.3 3.3 0 0 1 .201.055c.072.022.143.045.213.07h.002a4.02 4.02 0 0 1 .978.527l.015.012a4.59 4.59 0 0 1 1.039 1.081l.04.057.028.042.007.01a5.1 5.1 0 0 1 .34.606l.022.047.01.022.03.064.042.096.007.018.007.017a5.38 5.38 0 0 1 .162.447v.002l.006.018.034.113.01.036.025.092.001.003v.004c.318 1.213.252 2.76-.18 4.154-.652 2.105-2.2 3.298-4.07 3.382l-7.018.317 8.3.448h18.813l2.887-.197c.143-.012.524-.077.943-.2 5.833-1.26 10.373-6.743 10.45-13.003 0 0-.562-18.9-.28-24.344.414-7.924-3.028-9.18-7.827-12.597-1.375-.974-2.5-3.245-3.308-5.892zm-21.815 10.78c2.702-.1 4.812 2.118 4.712 4.952l-.015.428c-.1 2.834-2.37 5.2-5.072 5.3L7.2 41.42c-2.702.1-4.8-2.12-4.712-4.953l.015-.428c.1-2.834 2.37-5.212 5.07-5.312l12.15-.443zm.647 11.314c2.968-.1 5.295 2.13 5.196 4.996l-.014.433c-.098 2.867-2.583 5.28-5.552 5.388L6.665 52.9c-2.97.108-5.297-2.13-5.198-4.995l.015-.433c.098-2.866 2.583-5.28 5.552-5.388l13.348-.487zm-.977 11.525c2.726-.103 4.85 2.034 4.744 4.77l-.016.412c-.105 2.738-2.4 5.04-5.124 5.14l-12.253.458c-2.725.1-4.848-2.036-4.744-4.773l.017-.413c.104-2.737 2.398-5.04 5.123-5.14l12.253-.457z"/><path d="M18.333 64.293c2.456-.086 4.384 2.092 4.308 4.866l-.01.418c-.075 2.772-2.128 5.092-4.584 5.178l-11.044.385c-2.456.086-4.385-2.092-4.31-4.866l.01-.418c.076-2.773 2.128-5.09 4.584-5.177l11.045-.386z"/></g><path d="M253.9 93.586c0 .8-.163 1.535-.5 2.173a4.47 4.47 0 0 1-1.346 1.588 6.3 6.3 0 0 1-2.18 1.059c-.792.2-1.796.315-3.012.315h-7.32V81.953h6.5l2.967.136a6.39 6.39 0 0 1 1.863.597c.64.322 1.113.756 1.425 1.3s.468 1.165.468 1.863c0 .8-.214 1.525-.643 2.146s-1.032 1.102-1.813 1.446v.1c1.096.218 1.965.668 2.606 1.35s.964 1.583.964 2.702zm-5.54-6.9a1.85 1.85 0 0 0-.208-.834c-.14-.277-.385-.483-.738-.62-.314-.12-.707-.186-1.177-.197l-1.976-.017h-.405v3.547h.676l1.745-.033c.48-.022.86-.098 1.137-.226.4-.173.646-.396.767-.67a2.33 2.33 0 0 0 .18-.95zm1.046 6.823c0-.532-.103-.943-.3-1.232s-.557-.505-1.05-.647c-.337-.098-.802-.15-1.394-.158l-1.854-.01h-.943v4.178h.314l2.607-.012a3.78 3.78 0 0 0 1.449-.293c.45-.188.76-.437.928-.748s.253-.67.253-1.077zm18.42-.372h-9.278c.06 1 .438 1.75 1.132 2.274s1.717.788 3.068.788a6.89 6.89 0 0 0 2.488-.461c.804-.3 1.438-.64 1.903-1h.45v3.254c-.916.368-1.78.635-2.6.8s-1.708.248-2.7.248c-2.537 0-4.48-.57-5.833-1.712s-2.026-2.767-2.026-4.876c0-2.087.64-3.74 1.92-4.96s3.034-1.83 5.264-1.83c2.058 0 3.604.52 4.64 1.56s1.554 2.535 1.554 4.487v1.42h-.001zm-4.03-2.376c-.022-.85-.232-1.486-.63-1.914s-1.018-.643-1.858-.643c-.78 0-1.423.203-1.926.608s-.784 1.055-.845 1.948h5.26zm17.72-1.014v8.964h-4.065v-6.317l-.045-1.57c-.03-.43-.112-.782-.248-1.053s-.34-.467-.613-.6-.66-.186-1.154-.186a2.93 2.93 0 0 0-1.16.24 8.7 8.7 0 0 0-1.014.513v8.964h-4.064V86.075h4.064v1.396c.697-.548 1.365-.976 2.002-1.283a4.81 4.81 0 0 1 2.114-.462c.833 0 1.567.186 2.205.558s1.136.918 1.495 1.64c.8-.684 1.597-1.22 2.36-1.6s1.515-.586 2.25-.586c1.364 0 2.4.4 3.1 1.228s1.063 1.997 1.063 3.536v8.23h-4.065v-6.317l-.04-1.576c-.026-.43-.107-.777-.242-1.048a1.18 1.18 0 0 0-.608-.591c-.277-.124-.668-.186-1.17-.186a2.91 2.91 0 0 0-.991.174c-.324.116-.718.3-1.183.58zm30.76 0v8.964h-4.065v-6.317l-.045-1.57c-.03-.43-.112-.782-.248-1.053s-.34-.467-.613-.6-.66-.186-1.154-.186a2.93 2.93 0 0 0-1.16.24 8.7 8.7 0 0 0-1.014.513v8.964h-4.064V86.075h4.064v1.396c.697-.548 1.365-.976 2.002-1.283a4.81 4.81 0 0 1 2.114-.462c.833 0 1.567.186 2.205.558s1.136.918 1.495 1.64c.8-.684 1.597-1.22 2.36-1.6s1.515-.586 2.25-.586c1.364 0 2.4.4 3.1 1.228s1.063 1.997 1.063 3.536v8.23h-4.065v-6.317l-.04-1.576c-.026-.43-.107-.777-.242-1.048a1.18 1.18 0 0 0-.608-.591c-.277-.124-.668-.186-1.17-.186a2.91 2.91 0 0 0-.991.174c-.324.116-.72.3-1.183.58zm22.978 3.4h-9.278c.06 1 .438 1.75 1.132 2.274s1.717.788 3.068.788a6.89 6.89 0 0 0 2.488-.461c.804-.3 1.438-.64 1.903-1h.45v3.254c-.916.368-1.78.635-2.6.8s-1.708.248-2.7.248c-2.537 0-4.48-.57-5.833-1.712s-2.026-2.767-2.026-4.876c0-2.087.64-3.74 1.92-4.96s3.034-1.83 5.264-1.83c2.058 0 3.604.52 4.64 1.56s1.554 2.535 1.554 4.487l-.001 1.42zm-4.03-2.376c-.022-.85-.232-1.486-.63-1.914s-1.018-.643-1.858-.643c-.78 0-1.423.203-1.926.608s-.784 1.055-.845 1.948h5.26zm9.432 7.95h-4.065V81.2h4.065v17.52zm14.996 0h-4.065v-6.27a14.89 14.89 0 0 0-.078-1.525c-.053-.507-.143-.88-.27-1.12-.15-.277-.37-.48-.66-.607s-.692-.2-1.2-.2a3.7 3.7 0 0 0-1.12.18 6.03 6.03 0 0 0-1.233.574v8.964h-4.065v-17.52h4.065v6.27c.72-.563 1.4-.994 2.074-1.295s1.4-.45 2.2-.45c1.365 0 2.432.398 3.2 1.193s1.152 1.986 1.152 3.57v8.23zm15.13-6.316c0 2.08-.606 3.718-1.82 4.915s-2.914 1.796-5.106 1.796-3.895-.6-5.106-1.796-1.818-2.836-1.818-4.915c0-2.095.6-3.738 1.83-4.933s2.92-1.8 5.096-1.8c2.207 0 3.913.6 5.118 1.802s1.806 2.84 1.806 4.92zm-4.988 3.074c.263-.323.46-.7.6-1.166s.197-1.082.197-1.886c0-.743-.067-1.366-.203-1.87s-.322-.904-.563-1.205a1.98 1.98 0 0 0-.867-.653 3.08 3.08 0 0 0-1.093-.191 3.17 3.17 0 0 0-1.04.158c-.303.105-.596.315-.873.63-.248.293-.445.695-.6 1.205s-.22 1.152-.22 1.926c0 .7.063 1.3.2 1.796s.315.914.563 1.222c.24.293.527.507.86.643s.716.202 1.144.202a3 3 0 0 0 1.053-.186 1.93 1.93 0 0 0 .85-.626zm15.534-5.54h-.36c-.172-.06-.45-.105-.83-.136l-.955-.045a9.33 9.33 0 0 0-1.528.112c-.44.075-.918.203-1.427.384v8.468h-4.065V86.075h4.065v1.857c.892-.766 1.666-1.274 2.325-1.525s1.267-.378 1.82-.378l.483.012.472.034v3.863z" fill="#002e6e"/><path d="M369.856 71.3l-2.424 1.776c-.96.685-1.882 1.24-2.73 1.627-1.175.536-2.414.937-3.676 1.195s-2.66.4-4.174.4c-3.54 0-6.5-1.112-8.836-3.312-2.35-2.207-3.498-5.02-3.43-8.457.054-2.743.72-4.988 1.964-6.715 1.25-1.735 3.015-3.12 5.26-4.12 2.235-.995 5.007-1.72 8.294-2.14s6.695-.728 10.228-.933l.004-.205c.04-2.06-.78-3.5-2.443-4.28s-4.143-1.184-7.42-1.184c-1.97 0-4.087.354-6.326 1.047l-4.858 1.616h-1.092l.177-9.06c1.27-.33 3.342-.733 6.192-1.184s5.716-.683 8.573-.683c6.806 0 11.705 1.055 14.678 3.153 2.98 2.104 4.435 5.416 4.347 9.914l-.5 25.518H369.78l.077-3.973zm.114-5.805l.153-7.842c-1.62.137-3.367.33-5.246.558s-3.313.512-4.284.82c-1.195.378-2.132.935-2.764 1.65-.638.722-.978 1.685-1 2.868-.016.785.038 1.418.155 1.912.116.487.46.952.974 1.4a4.9 4.9 0 0 0 1.802.99c.697.2 1.803.32 3.306.32 1.195 0 2.4-.257 3.634-.74s2.333-1.137 3.27-1.934zm-28.362 9.73a32.04 32.04 0 0 1-4.124.786c-1.446.184-3.227.285-5.32.285-4.678 0-8.144-.952-10.38-2.834-2.244-1.888-3.325-5.122-3.236-9.708l.343-17.505h-7.35l.16-8.127h7.35l.2-10.72h12.02l-.2 10.72h11.268l-.16 8.127H330.91l-.26 13.294-.034 3.45a7.34 7.34 0 0 0 .483 2.64c.296.767.84 1.407 1.614 1.856.783.454 1.933.683 3.447.683.626 0 1.452-.14 2.466-.4s1.74-.524 2.143-.75h1.002l-.16 8.215zM310.567 62.4c-.076 3.87-1.867 6.988-5.384 9.344-3.507 2.367-8.276 3.552-14.297 3.552-3.335 0-6.356-.307-9.053-.934-2.697-.614-4.857-1.3-6.493-2.06l.193-9.845h1.104c.584.42 1.27.876 2.044 1.377.787.5 1.892 1.035 3.315 1.616 1.242.5 2.634.944 4.208 1.3 1.564.364 3.256.546 5.054.546 2.345 0 4.1-.262 5.24-.785 1.137-.523 1.72-1.297 1.742-2.322.018-.9-.3-1.57-.963-1.98-.652-.4-1.92-.797-3.778-1.184-.884-.193-2.087-.4-3.607-.65-1.5-.227-2.892-.512-4.127-.842-3.386-.888-5.885-2.276-7.487-4.154-1.614-1.878-2.387-4.2-2.333-7 .07-3.597 1.837-6.6 5.298-8.97 3.46-2.4 8.15-3.585 14.058-3.585 2.8 0 5.48.285 8.042.854s4.552 1.172 5.985 1.82l-.186 9.48h-1.035c-1.75-1.23-3.76-2.232-6.02-3.005a21.2 21.2 0 0 0-6.897-1.161c-1.935 0-3.57.263-4.898.797s-2.006 1.298-2.025 2.277c-.017.887.267 1.56.86 2.026s1.997.933 4.207 1.4a82.08 82.08 0 0 0 3.935.717 47.04 47.04 0 0 1 4.24.887c3.137.82 5.445 2.106 6.924 3.87 1.477 1.775 2.186 3.97 2.134 6.612zM274 57.803h-27.453c.125 2.936 1.196 5.2 3.214 6.75 2.03 1.56 5.042 2.333 9.048 2.333 2.527 0 4.995-.467 7.392-1.4s4.294-1.923 5.692-2.982h1.33l-.2 9.663c-2.73 1.092-5.307 1.878-7.718 2.367s-5.08.74-7.982.74c-7.523 0-13.25-1.685-17.2-5.065-3.93-3.38-5.837-8.194-5.715-14.443.12-6.18 2.106-11.074 5.967-14.682s9.098-5.418 15.7-5.418c6.1 0 10.635 1.537 13.647 4.62 3.002 3.084 4.452 7.512 4.338 13.305l-.08 4.2zm-11.813-7.034c-.02-2.516-.596-4.405-1.755-5.68-1.147-1.263-2.967-1.9-5.45-1.9-2.3 0-4.2.603-5.726 1.798-1.504 1.207-2.372 3.13-2.606 5.782h15.536zm-30.09-1.434h-1.06c-.5-.18-1.328-.32-2.462-.4l-2.82-.137c-1.707 0-3.212.114-4.525.33-1.314.227-2.732.603-4.245 1.138l-.5 25.03H204.5l.733-37.423h12.02l-.107 5.498c2.684-2.265 5.002-3.768 6.974-4.518 1.96-.74 3.766-1.115 5.405-1.115l1.422.034 1.398.102-.225 11.47zm-29.603 6.03c-.06 3.084-.594 5.896-1.588 8.433-.994 2.527-2.276 4.62-3.844 6.26-1.64 1.742-3.475 3.05-5.518 3.938s-4.226 1.332-6.536 1.332c-2.14 0-3.946-.23-5.428-.683s-2.995-1.093-4.537-1.912l-.123 17h-12.02l.82-52.6h12.02l-.076 3.904c1.872-1.468 3.785-2.652 5.726-3.563s4.17-1.366 6.685-1.366c4.678 0 8.275 1.708 10.803 5.133s3.733 8.128 3.616 14.104h0zm-12.434.25c.072-3.643-.503-6.295-1.7-7.933-1.208-1.65-3.16-2.47-5.847-2.47-1.127 0-2.3.17-3.504.513-1.203.353-2.35.842-3.455 1.5l-.37 18.837c.8.32 1.64.512 2.55.603a27.02 27.02 0 0 0 2.695.136c3.175 0 5.56-.934 7.145-2.8 1.595-1.856 2.423-4.644 2.497-8.388zm-53.53-6.813l-.52 26.52h-12.02l.366-18.7-.046-4.644c-.066-1.286-.285-2.322-.668-3.118-.394-.797-.986-1.4-1.787-1.753-.812-.365-1.947-.547-3.415-.547a8.79 8.79 0 0 0-3.463.717c-1.125.477-2.136.98-3.034 1.514l-.52 26.52H99.42l.733-37.423h12.02l-.08 4.143c2.104-1.628 4.098-2.9 6.005-3.802s4-1.366 6.286-1.366c2.47 0 4.633.546 6.5 1.65 1.868 1.092 3.316 2.7 4.344 4.85 2.43-2.026 4.794-3.608 7.082-4.77 2.288-1.15 4.518-1.73 6.692-1.73 4.04 0 7.1 1.206 9.137 3.63 2.058 2.424 3.037 5.907 2.948 10.46L160.6 75.32H148.6l.366-18.7c.036-1.844.032-3.404-.022-4.666s-.274-2.3-.656-3.096a3.43 3.43 0 0 0-1.775-1.753c-.812-.365-1.97-.547-3.46-.547a8.8 8.8 0 0 0-2.958.512c-.966.355-2.15.923-3.542 1.72zM96.964 75.32L61.1 75.286l.185-54.278h35.92l-.037 10.5H74.1l-.032 9.3H95.5l-.036 10.5H74.02l-.046 13.33h23.082z" fill-rule="evenodd" fill="#ef6c00"/></svg>