<?xml version="1.0" encoding="utf-8"?>
<svg xmlns="http://www.w3.org/2000/svg"  width="205.091" height="53.022" viewBox="0 0 205.091 53.022"><g transform="translate(-93.368 -272.744)"><g transform="translate(93.368 272.744)"><path d="M23.059,10.826a17.13,17.13,0,0,1-.639-5.282,5.016,5.016,0,0,0-.108-1.292A3.722,3.722,0,0,0,19.229.762,3.875,3.875,0,0,0,17.6.8a6.506,6.506,0,0,0-5.008,5.782c-.124,2.426,2.42,6.967,1.011,8.619-.738.864-4.194.862-5.6,1.228l3.243-.116a2.618,2.618,0,0,1,2.49,1.616,2.87,2.87,0,0,1,.2.542h0l.016.069.015.07.013.07h0c0,.024.008.047.011.072h0l.011.072.009.073.007.073.005.074q.009.151,0,.3l-.008.248a3.378,3.378,0,0,1-.033.378h0l-.012.074-.013.073h0l-.015.073-.016.072h0l-.018.072-.019.071-.022.07-.023.07-.024.07-.026.07-.027.067-.024.057a3.365,3.365,0,0,1-1.489,1.708A2.772,2.772,0,0,1,14.65,25.2c.006.1.008.194.005.294l-.008.247a3.236,3.236,0,0,1-2.741,3.04l.054.014c.039.011.078.022.116.035l.011,0a2.37,2.37,0,0,1,.236.093h0a2.342,2.342,0,0,1,.219.114l.012.006.012.007.043.027,0,0q.079.05.155.106l.011.008c.032.024.065.05.1.075h0l0,0a2.6,2.6,0,0,1,.427.456l.037.052a2.675,2.675,0,0,1,.214.365l0,.008.028.054,0,.006a.671.671,0,0,0,.054.108l.005.014.046.126.018.057c.01.031.019.062.028.094l.01.037,0,.013,0,.017.012.051,0,.006.014.063,0,.016.009.047,0,.023c.006.036.012.07.016.106l.005.041.006.051.005.058v.031l0,.058,0,.047,0,.051v.129l0,.072-.009.244a3.112,3.112,0,0,1-2.6,3.014q.055.013.108.03c.039.012.077.024.115.038h0a2.166,2.166,0,0,1,.527.284l.008.006a2.473,2.473,0,0,1,.56.582l.022.031.015.023,0,.005a2.747,2.747,0,0,1,.183.326l.012.025.005.012.016.034.023.052,0,.01,0,.009q.049.118.087.241h0l0,.01.018.061.005.019.013.05v0a4.256,4.256,0,0,1-.1,2.238A2.387,2.387,0,0,1,10.687,40.7l-3.781.171,4.471.241H21.513l1.555-.106a3.088,3.088,0,0,0,.508-.108,7.328,7.328,0,0,0,5.63-7s-.3-10.182-.151-13.114c.223-4.269-1.631-4.945-4.217-6.786a6.272,6.272,0,0,1-1.782-3.174ZM11.307,16.634A2.479,2.479,0,0,1,13.845,19.3l-.008.231A2.943,2.943,0,0,1,11.1,22.387l-6.551.246a2.483,2.483,0,0,1-2.538-2.668l.008-.231a2.949,2.949,0,0,1,2.731-2.862l6.545-.239Zm.349,6.1a2.619,2.619,0,0,1,2.8,2.691l-.008.233a3.1,3.1,0,0,1-2.991,2.9l-7.19.261a2.616,2.616,0,0,1-2.8-2.691l.008-.233a3.1,3.1,0,0,1,2.991-2.9l7.191-.262Zm-.526,6.209a2.432,2.432,0,0,1,2.556,2.57l-.009.222a2.92,2.92,0,0,1-2.76,2.769l-6.6.247a2.434,2.434,0,0,1-2.556-2.571l.009-.222a2.919,2.919,0,0,1,2.76-2.769l6.6-.246Z" transform="translate(-1.464 -0.692)" fill="#fff" fill-rule="evenodd"/><path d="M11.118,64.292a2.379,2.379,0,0,1,2.321,2.621l-.005.225a2.766,2.766,0,0,1-2.469,2.789l-5.95.207a2.381,2.381,0,0,1-2.322-2.621l.005-.225A2.766,2.766,0,0,1,5.167,64.5l5.95-.208Z" transform="translate(-2.03 -30.029)" fill="#fff" fill-rule="evenodd"/></g><path d="M247.277,87.871a2.483,2.483,0,0,1-.269,1.171,2.408,2.408,0,0,1-.725.855,3.394,3.394,0,0,1-1.174.571,6.736,6.736,0,0,1-1.623.17h-3.943V81.6h3.5l1.6.073a3.442,3.442,0,0,1,1,.322,1.772,1.772,0,0,1,.768.7,2.112,2.112,0,0,1-.094,2.16,2.256,2.256,0,0,1-.977.779v.054a2.547,2.547,0,0,1,1.4.727,2.04,2.04,0,0,1,.519,1.456Zm-2.984-3.717a1,1,0,0,0-.112-.449.706.706,0,0,0-.4-.334,1.919,1.919,0,0,0-.634-.106l-1.064-.009h-.218v1.911h.364l.94-.018a1.673,1.673,0,0,0,.612-.122.736.736,0,0,0,.413-.361,1.255,1.255,0,0,0,.1-.512Zm.564,3.676a1.171,1.171,0,0,0-.162-.664.992.992,0,0,0-.566-.349,2.953,2.953,0,0,0-.751-.085l-1-.005h-.508v2.251h.169l1.4-.006a2.036,2.036,0,0,0,.781-.158.956.956,0,0,0,.5-.4,1.2,1.2,0,0,0,.136-.58Zm9.923-.2h-5a1.562,1.562,0,0,0,.61,1.225,2.717,2.717,0,0,0,1.653.425,3.712,3.712,0,0,0,1.34-.248,3.923,3.923,0,0,0,1.025-.539h.242v1.753a8.021,8.021,0,0,1-1.4.431,7.336,7.336,0,0,1-1.455.134,4.743,4.743,0,0,1-3.142-.922,3.245,3.245,0,0,1-1.091-2.627,3.516,3.516,0,0,1,1.034-2.672,3.941,3.941,0,0,1,2.836-.986,3.385,3.385,0,0,1,2.5.84,3.279,3.279,0,0,1,.837,2.417v.765h0Zm-2.171-1.28a1.525,1.525,0,0,0-.339-1.031,1.307,1.307,0,0,0-1-.346,1.6,1.6,0,0,0-1.038.328,1.4,1.4,0,0,0-.455,1.049h2.834Zm9.546-.546v4.829h-2.19v-3.4l-.024-.846a1.507,1.507,0,0,0-.134-.567.7.7,0,0,0-.33-.323,1.468,1.468,0,0,0-.622-.1,1.579,1.579,0,0,0-.625.129,4.679,4.679,0,0,0-.546.276v4.829h-2.189v-6.8h2.189v.752a5.95,5.95,0,0,1,1.078-.691,2.591,2.591,0,0,1,1.139-.249,2.313,2.313,0,0,1,1.188.3,2.044,2.044,0,0,1,.805.883,6.331,6.331,0,0,1,1.271-.862,2.724,2.724,0,0,1,1.212-.316,2.062,2.062,0,0,1,1.67.662,2.861,2.861,0,0,1,.573,1.9v4.434h-2.19v-3.4l-.022-.849a1.467,1.467,0,0,0-.13-.565.635.635,0,0,0-.328-.318,1.588,1.588,0,0,0-.63-.1,1.567,1.567,0,0,0-.534.094,3.623,3.623,0,0,0-.637.312Zm16.571,0v4.829h-2.19v-3.4l-.024-.846a1.507,1.507,0,0,0-.134-.567.7.7,0,0,0-.33-.323,1.468,1.468,0,0,0-.622-.1,1.578,1.578,0,0,0-.625.129,4.685,4.685,0,0,0-.546.276v4.829h-2.189v-6.8h2.189v.752a5.95,5.95,0,0,1,1.079-.691,2.591,2.591,0,0,1,1.139-.249,2.313,2.313,0,0,1,1.188.3,2.044,2.044,0,0,1,.805.883,6.33,6.33,0,0,1,1.271-.862,2.724,2.724,0,0,1,1.212-.316,2.062,2.062,0,0,1,1.67.662,2.861,2.861,0,0,1,.573,1.9v4.434H281v-3.4l-.022-.849a1.466,1.466,0,0,0-.13-.565.635.635,0,0,0-.328-.318,1.587,1.587,0,0,0-.63-.1,1.567,1.567,0,0,0-.534.094,3.586,3.586,0,0,0-.637.312ZM291.1,87.635h-5a1.562,1.562,0,0,0,.61,1.225,2.716,2.716,0,0,0,1.653.425,3.712,3.712,0,0,0,1.34-.248,3.923,3.923,0,0,0,1.025-.539h.242V90.25a8.02,8.02,0,0,1-1.4.431,7.337,7.337,0,0,1-1.455.134,4.744,4.744,0,0,1-3.142-.922,3.246,3.246,0,0,1-1.091-2.627,3.516,3.516,0,0,1,1.034-2.672,3.941,3.941,0,0,1,2.836-.986,3.385,3.385,0,0,1,2.5.84,3.279,3.279,0,0,1,.837,2.417v.765Zm-2.171-1.28a1.525,1.525,0,0,0-.339-1.031,1.307,1.307,0,0,0-1-.346,1.6,1.6,0,0,0-1.038.328,1.4,1.4,0,0,0-.455,1.049h2.834Zm5.081,4.283h-2.19V81.2h2.19v9.438Zm8.079,0H299.9V87.26a8,8,0,0,0-.042-.823,1.737,1.737,0,0,0-.145-.6.724.724,0,0,0-.355-.327,1.643,1.643,0,0,0-.647-.108,1.994,1.994,0,0,0-.6.1,3.247,3.247,0,0,0-.664.309v4.829h-2.19V81.2h2.19v3.378a5.427,5.427,0,0,1,1.117-.7,2.86,2.86,0,0,1,1.185-.242,2.285,2.285,0,0,1,1.724.643,2.669,2.669,0,0,1,.621,1.923v4.434Zm8.151-3.4a3.549,3.549,0,0,1-.98,2.648,4.394,4.394,0,0,1-5.5,0,4.072,4.072,0,0,1,.007-5.305,4.386,4.386,0,0,1,5.5,0,3.574,3.574,0,0,1,.973,2.65Zm-2.687,1.656a1.782,1.782,0,0,0,.323-.628,3.662,3.662,0,0,0,.106-1.016,3.93,3.93,0,0,0-.109-1.007,1.761,1.761,0,0,0-.3-.649,1.067,1.067,0,0,0-.467-.352,1.659,1.659,0,0,0-.589-.1,1.707,1.707,0,0,0-.56.085,1.135,1.135,0,0,0-.47.339,1.814,1.814,0,0,0-.323.649,4.5,4.5,0,0,0-.011,2.005,1.822,1.822,0,0,0,.3.658,1.16,1.16,0,0,0,.463.346,1.728,1.728,0,0,0,1.184.009,1.04,1.04,0,0,0,.458-.337Zm8.368-2.984h-.194a1.982,1.982,0,0,0-.447-.073l-.514-.024a5.025,5.025,0,0,0-.823.06,4.643,4.643,0,0,0-.769.207v4.562h-2.19V83.825h2.19v1A4.54,4.54,0,0,1,314.429,84a2.779,2.779,0,0,1,.98-.2l.26.006.254.018v2.081Z" transform="translate(-17.918 234.917)" fill="#fff"/><path d="M227.432,48.1l-1.306.957a9.118,9.118,0,0,1-1.471.876,9.24,9.24,0,0,1-1.98.644,11.251,11.251,0,0,1-2.249.215,6.687,6.687,0,0,1-4.76-1.784,5.8,5.8,0,0,1-1.848-4.556,6.274,6.274,0,0,1,1.058-3.617,6.836,6.836,0,0,1,2.834-2.22,16.065,16.065,0,0,1,4.468-1.153q2.656-.339,5.51-.5l0-.11a2.274,2.274,0,0,0-1.316-2.306,9.79,9.79,0,0,0-4-.638,11.582,11.582,0,0,0-3.408.564l-2.617.871h-.588l.1-4.881c.684-.178,1.8-.395,3.336-.638a29.551,29.551,0,0,1,4.618-.368q5.5,0,7.907,1.7a5.939,5.939,0,0,1,2.342,5.341l-.269,13.747h-6.4l.041-2.14Zm.061-3.127.082-4.225c-.873.074-1.814.178-2.826.3a13.42,13.42,0,0,0-2.308.442,3.262,3.262,0,0,0-1.489.889,2.326,2.326,0,0,0-.539,1.545,4.2,4.2,0,0,0,.084,1.03,1.521,1.521,0,0,0,.525.754,2.64,2.64,0,0,0,.971.533,6.966,6.966,0,0,0,1.781.172,5.349,5.349,0,0,0,1.958-.4,6.189,6.189,0,0,0,1.762-1.042Zm-15.279,5.242a17.26,17.26,0,0,1-2.222.423,23.179,23.179,0,0,1-2.866.154c-2.52,0-4.387-.513-5.592-1.527s-1.791-2.759-1.743-5.23l.185-9.43h-3.96l.086-4.378h3.96l.108-5.775h6.475l-.108,5.775h6.07l-.086,4.378h-6.071l-.14,7.162-.018,1.859a3.954,3.954,0,0,0,.26,1.422,1.965,1.965,0,0,0,.869,1,3.768,3.768,0,0,0,1.857.368,5.688,5.688,0,0,0,1.328-.215,5.266,5.266,0,0,0,1.154-.4h.54l-.086,4.426Zm-16.722-6.909a5.962,5.962,0,0,1-2.9,5.034,13.6,13.6,0,0,1-7.7,1.914,21.605,21.605,0,0,1-4.877-.5,17.957,17.957,0,0,1-3.5-1.11l.1-5.3h.595c.315.226.684.472,1.1.742a11.7,11.7,0,0,0,1.786.871,14.775,14.775,0,0,0,2.267.7,12.019,12.019,0,0,0,2.723.294,7.139,7.139,0,0,0,2.823-.423,1.384,1.384,0,0,0,.938-1.251,1.134,1.134,0,0,0-.519-1.067,7.231,7.231,0,0,0-2.035-.638c-.476-.1-1.124-.215-1.943-.35a20.679,20.679,0,0,1-2.223-.454,7.714,7.714,0,0,1-4.033-2.238,5.4,5.4,0,0,1-1.257-3.771,5.846,5.846,0,0,1,2.854-4.832,13.089,13.089,0,0,1,7.573-1.931,19.929,19.929,0,0,1,4.332.46,17.155,17.155,0,0,1,3.224.98l-.1,5.107h-.558a12.823,12.823,0,0,0-3.243-1.619,11.421,11.421,0,0,0-3.716-.625,7.1,7.1,0,0,0-2.639.429c-.715.288-1.081.7-1.091,1.227a1.269,1.269,0,0,0,.463,1.091,6.519,6.519,0,0,0,2.266.754q1.055.219,2.12.386,1.152.186,2.284.478a7.027,7.027,0,0,1,3.73,2.085,5.2,5.2,0,0,1,1.15,3.562Zm-19.7-2.476H161a4.58,4.58,0,0,0,1.731,3.636,7.915,7.915,0,0,0,4.874,1.257,10.9,10.9,0,0,0,3.982-.754,12.829,12.829,0,0,0,3.066-1.606h.716l-.108,5.206a24.23,24.23,0,0,1-4.158,1.275,21.7,21.7,0,0,1-4.3.4q-6.079,0-9.266-2.729t-3.079-7.781a10.6,10.6,0,0,1,3.215-7.909,11.9,11.9,0,0,1,8.458-2.919c3.286,0,5.729.828,7.352,2.489s2.4,4.047,2.337,7.168l-.043,2.263Zm-6.364-3.789a4.463,4.463,0,0,0-.945-3.06,3.789,3.789,0,0,0-2.936-1.024,4.843,4.843,0,0,0-3.085.969,4.267,4.267,0,0,0-1.4,3.115h8.369Zm-16.21-.773h-.571a5.41,5.41,0,0,0-1.326-.215l-1.519-.074a15.109,15.109,0,0,0-2.438.178,14.1,14.1,0,0,0-2.287.613l-.269,13.484h-6.457l.395-20.16h6.475l-.058,2.962a13.882,13.882,0,0,1,3.757-2.434,8.322,8.322,0,0,1,2.912-.6l.766.018.753.055-.121,6.179Zm-15.948,3.248a13.065,13.065,0,0,1-.855,4.543,10.24,10.24,0,0,1-2.071,3.372,8.972,8.972,0,0,1-2.973,2.121,8.745,8.745,0,0,1-3.521.718,10.1,10.1,0,0,1-2.924-.368,13.884,13.884,0,0,1-2.444-1.03l-.066,9.158h-6.475l.442-28.336h6.475l-.041,2.1a16.075,16.075,0,0,1,3.085-1.919,8.386,8.386,0,0,1,3.6-.736,6.8,6.8,0,0,1,5.82,2.765q2.043,2.768,1.948,7.6h0Zm-6.7.135a7.118,7.118,0,0,0-.916-4.274,3.642,3.642,0,0,0-3.15-1.331,6.89,6.89,0,0,0-1.888.276,8.023,8.023,0,0,0-1.861.808l-.2,10.148a4.992,4.992,0,0,0,1.374.325q.724.073,1.452.073a4.772,4.772,0,0,0,3.849-1.508,7,7,0,0,0,1.345-4.519Zm-28.837-3.67-.28,14.287H94.98l.2-10.074-.025-2.5a4.426,4.426,0,0,0-.36-1.68,1.93,1.93,0,0,0-.963-.944,4.6,4.6,0,0,0-1.84-.295,4.735,4.735,0,0,0-1.866.386,13.545,13.545,0,0,0-1.634.816l-.28,14.287H81.744l.395-20.16h6.475l-.043,2.232a17.847,17.847,0,0,1,3.235-2.048,7.819,7.819,0,0,1,3.386-.736,6.743,6.743,0,0,1,3.5.889,5.848,5.848,0,0,1,2.34,2.613,20.551,20.551,0,0,1,3.815-2.57,8,8,0,0,1,3.605-.932,6.075,6.075,0,0,1,4.922,1.956,8.211,8.211,0,0,1,1.588,5.635L114.7,50.267h-6.465l.2-10.074c.019-.993.017-1.834-.012-2.514a4.315,4.315,0,0,0-.353-1.668,1.848,1.848,0,0,0-.956-.944,4.692,4.692,0,0,0-1.864-.295,4.741,4.741,0,0,0-1.594.276,13.025,13.025,0,0,0-1.908.927ZM80.421,50.267,61.1,50.248l.1-29.24H80.55l-.02,5.657H68.1l-.017,5.01H79.632l-.019,5.657H68.06l-.025,7.181H80.47Z" transform="translate(64.395 262.681)" fill="#fff" fill-rule="evenodd"/></g></svg>