<svg xmlns="http://www.w3.org/2000/svg" xmlns:xlink="http://www.w3.org/1999/xlink" viewBox="0 0 383 144" xmlns:v="https://vecta.io/nano"><path d="M57.2 136.8l-21.3-7.7V97.8l21.3 7.3zm3.9 0l21.4-7.7V97.8l-21.4 7.3zm-23-41.3l21.6-6.1 20 6.5-20 6.8zm-6.3-2.4l-21.3-7.7V54.1l21.3 7.3zm3.9 0l21.4-7.7V54.1l-21.4 7.3zM12.6 51.8l21.7-6.1 20 6.5-20 6.8zm69 41.3l-21.3-7.7V54.1l21.3 7.3zm3.9 0l21.4-7.7V54.1l-21.4 7.3zm-23-41.3l21.6-6.1 20 6.5-20 6.8zm44.5-2.4l-21.3-7.7V10.4l21.3 7.3zm3.9 0l21.4-7.7V10.4l-21.4 7.3zm-23-41.3L109.5 2l20 6.5-20 6.8zm68.9 41.3l-21.3-7.7V10.4l21.3 7.3zm3.9 0l21.4-7.7V10.4l-21.4 7.3zm-23-41.3L159.3 2l20 6.5-20 6.8z" fill-rule="evenodd" fill="#8e8e8e"/><path d="M146 116.4l-7.2 24.9h-3.1l-5.6-18.5-5.1 18.5h-3.2l-7.5-24.9h3.9l5.4 18.6 5.2-18.6h2.8l5.6 18.6 5.6-18.6h3.2zm19.8 17.5l3.6.7c-.7 2.1-2 4-3.8 5.3-1.9 1.4-4.3 2.1-6.7 2.1-3.1.1-6.1-1.2-8.2-3.6-4.2-5.6-4.2-13.4.1-19 2-2.4 5.1-3.7 8.2-3.7 3-.1 5.8 1.2 7.8 3.4 2 2.3 3 5.6 3 10.1h-18c0 3.8.8 6.3 2.4 7.6 1.4 1.2 3.1 2 5 2 3.1 0 5.3-1.6 6.6-4.9zm-.2-7.6c0-1.3-.3-2.5-.7-3.7-.5-1.1-1.2-2.1-2.2-2.8-1.1-.8-2.4-1.2-3.7-1.1-1.9 0-3.6.7-4.9 2.1-1.4 1.5-2.2 3.5-2.3 5.6l13.8-.1zm11.2 15h-1.9v-33.6h3.9v12.9c1.8-3.2 4.2-4.8 7.3-4.8 2.8 0 5.4 1.2 7.2 3.4 1.9 2.3 2.9 5.5 2.9 9.8a15.45 15.45 0 0 1-2.8 9.3c-1.7 2.4-4.5 3.8-7.4 3.7-3.4 0-6-1.6-7.8-4.8l-1.4 4.1zm2-9.8c.2 2.5 1 4.4 2.4 5.6 1.2 1.1 2.8 1.7 4.4 1.7 1.9 0 3.8-1 4.8-2.6 1.3-2.1 1.9-4.5 1.8-7 .2-2.6-.4-5.3-1.7-7.6-1-1.8-2.9-2.8-4.9-2.8-1.7 0-3.3.8-4.4 2-1.3 1.4-2.1 3.2-2.3 5.1l-.1 5.6zm27.3 3.4l3.7-.8c.8 3.1 3.4 4.7 7.8 4.7 1.4 0 2.9-.3 4.1-1.1 1.1-.6 1.8-1.8 1.7-3.1 0-1.9-1.4-3.2-4.3-3.7l-5.2-1c-1.8-.3-3.5-1.1-4.9-2.3-1.2-1.2-1.9-2.9-1.8-4.6 0-2 .9-3.9 2.5-5.2 1.9-1.5 4.3-2.2 6.7-2.1 5.4 0 8.7 2.1 10 6.3l-3.5.8c-1-2.6-3.1-3.9-6.3-3.9-1.4 0-2.7.3-3.9 1-1 .6-1.5 1.6-1.5 2.7 0 1.8 1.3 3 3.9 3.5l4.8.9c5.1.9 7.6 3.4 7.6 7.4 0 2.2-1 4.2-2.8 5.5-2.3 1.5-5 2.3-7.7 2.1-5.9 0-9.5-2.4-10.9-7.1zm42-1l3.6.7c-.6 2.1-2 4-3.8 5.3-1.9 1.4-4.3 2.2-6.7 2.1-3.1.1-6.1-1.2-8.2-3.6-4.2-5.6-4.2-13.4.1-19 2-2.4 5.1-3.7 8.2-3.7 3-.1 5.8 1.2 7.8 3.4 2 2.3 3 5.6 3 10.1H234c0 3.8.8 6.3 2.4 7.6 1.4 1.2 3.1 2 5 2 3.1 0 5.4-1.6 6.7-4.9zm-.2-7.6c0-1.3-.3-2.5-.7-3.7-.5-1.1-1.2-2.1-2.2-2.8-1.1-.8-2.4-1.2-3.7-1.1-1.9 0-3.6.7-4.9 2.1-1.4 1.5-2.2 3.5-2.3 5.6l13.8-.1zm12.2 15h-3.9v-24.9h3.4v5.8c1.2-2.7 2.4-4.5 3.6-5.3 1.1-.8 2.4-1.2 3.7-1.2h1.5v3.7h-.8c-2 0-4 .8-5.3 2.4-1.5 1.7-2.3 3.9-2.3 6.2l.1 13.3zm32.5-24.9l-8.6 24.9h-4l-8.9-24.9h4.3l6.9 20.2 6.9-20.2h3.4zm7.3-8.7v4.3h-4.2v-4.3h4.2zm-.1 8.7v24.9h-3.9v-24.9h3.9zm20.2 16.2l3.5.6c-.3 2.5-1.5 4.8-3.3 6.5-4.2 3.5-10.4 3-13.9-1.2l-.3-.3c-1.9-2.7-2.8-6-2.7-9.3-.1-3.4.9-6.7 2.8-9.4 1.8-2.5 4.7-3.9 7.7-3.8 2.4-.1 4.8.7 6.5 2.4s2.7 3.9 3 6.3l-3.5.7c-.7-4.1-2.7-6.2-6-6.2-2-.1-3.9 1-4.9 2.7-1.2 2.2-1.8 4.6-1.7 7.1-.1 2.6.4 5.1 1.7 7.4 1 1.7 2.8 2.7 4.8 2.6 3.4.1 5.5-2 6.3-6.1zm25.4 1.3l3.6.7c-.6 2.1-2 4-3.8 5.3-1.9 1.4-4.3 2.1-6.7 2.1-3.1.1-6.1-1.2-8.2-3.6-4.2-5.6-4.2-13.4.1-19 2-2.4 5.1-3.7 8.2-3.7 3-.1 5.8 1.2 7.8 3.4 2 2.3 3 5.6 3 10.1h-18c0 3.8.8 6.3 2.4 7.6 1.4 1.2 3.1 2 5 2 3.1 0 5.3-1.6 6.6-4.9zm-.2-7.6c0-1.3-.3-2.5-.7-3.7-.4-1.1-1.2-2.1-2.2-2.8-1.1-.8-2.4-1.2-3.7-1.1-1.9 0-3.6.7-4.9 2.1-1.4 1.5-2.2 3.5-2.3 5.6l13.8-.1zm6.4 8.6l3.7-.8c.8 3.1 3.4 4.7 7.8 4.7 1.4 0 2.9-.3 4.1-1.1 1.1-.6 1.8-1.8 1.7-3.1 0-1.9-1.4-3.2-4.3-3.7l-5.2-1c-1.8-.3-3.5-1.1-4.9-2.3-1.2-1.2-1.9-2.9-1.8-4.6 0-2 .9-3.9 2.5-5.2 1.9-1.5 4.3-2.2 6.7-2.1 5.4 0 8.7 2.1 10 6.3l-3.5.8c-1-2.6-3.1-3.9-6.3-3.9-1.4 0-2.7.3-3.9 1-1 .6-1.5 1.6-1.5 2.7 0 1.8 1.3 3 3.9 3.5l4.8.9c5.1.9 7.6 3.4 7.6 7.4 0 2.2-1 4.2-2.8 5.5-2.2 1.5-4.8 2.2-7.5 2.1-6 0-9.7-2.4-11.1-7.1z" fill="#8e8e8e" stroke="#fff"/><g fill-rule="evenodd"><path d="M264.2 63.2v-6a1.54 1.54 0 0 1 1.5-1.5h26.8a1.54 1.54 0 0 1 1.5 1.5v5.1c0 .9-.7 2-2 3.8l-13.9 19.8c5.2-.1 10.6.7 15.3 3.3.8.5 1.4 1.3 1.4 2.3v6.4c0 .9-1 1.9-2 1.4-8.9-4.5-19.4-4.5-28.3.1-.9.5-1.9-.5-1.9-1.4v-6.1c-.1-1.4.3-2.9 1-4.1l16.1-23.1h-14a1.54 1.54 0 0 1-1.5-1.5h0zm-96 37.3H160c-.8 0-1.4-.6-1.5-1.4V57.3a1.54 1.54 0 0 1 1.5-1.5h7.7c.8 0 1.4.6 1.5 1.4v5.5h.2c2-5.3 5.7-7.8 10.7-7.8s8.3 2.5 10.6 7.8c2.3-6.2 9.2-9.4 15.4-7.1 2.1.8 3.9 2.1 5.3 3.9 2.6 3.5 2.1 8.6 2.1 13.1V99a1.54 1.54 0 0 1-1.5 1.5h-8.2a1.54 1.54 0 0 1-1.5-1.5V76.8c0-1.8.2-6.2-.2-7.8s-2.4-3.6-4.8-3.6c-2.2 0-4.1 1.4-4.9 3.4-.8 2.1-.8 5.6-.8 8V99a1.54 1.54 0 0 1-1.5 1.5h-8.2a1.54 1.54 0 0 1-1.5-1.5V76.8c0-4.7.8-11.5-5-11.5s-5.6 6.7-5.6 11.5V99a1.54 1.54 0 0 1-1.5 1.5h-.1zm145.5-45.6c12 0 18.5 10.4 18.5 23.6s-7.2 22.9-18.5 22.9-18.2-10.4-18.2-23.3 6.5-23.2 18.2-23.2zm.1 9.6c-6 0-6.3 8.2-6.3 13.3s-.1 15 6.3 15 6.6-7.7 6.6-13.1c0-3.5-.2-7.8-1.2-11.1s-2.8-4.1-5.4-4.1h0zm35.8 36h-8.1A1.54 1.54 0 0 1 340 99V57.1c.1-.8.8-1.5 1.6-1.4h7.6c.7.1 1.2.5 1.4 1.2v6.4h.2c2.3-5.7 5.5-8.5 11.1-8.5 3.8-.2 7.4 1.7 9.5 4.9 2.1 3.3 2.1 9 2.1 13v26.5c-.1.8-.8 1.4-1.6 1.3h-8.2c-.8 0-1.4-.6-1.5-1.3V76.5c0-4.6.5-11.3-5.1-11.3-2.1.1-3.9 1.4-4.7 3.3-1 2.5-1.4 5.2-1.3 7.9V99a1.54 1.54 0 0 1-1.5 1.5z" fill="#8e8e8e"/><use xlink:href="#B" fill="#8e8e8e"/><use xlink:href="#B" x="-106" fill="#8e8e8e"/></g><defs ><path id="B" d="M243.7 80.5c0 3.2.1 5.8-1.5 8.7-1.1 2.2-3.2 3.6-5.6 3.7-3.1 0-5-2.4-5-5.9 0-6.9 6.2-8.2 12.1-8.2v1.7zm8.2 19.9c-.5.4-1.3.5-1.9.2-1.9-1.5-3.5-3.3-4.7-5.4-4.5 4.6-7.7 5.9-13.5 5.9s-12.2-4.2-12.2-12.7c-.2-5.8 3.3-11.1 8.7-13.3 4.4-1.9 10.6-2.3 15.3-2.8v-1.1c0-1.9.2-4.2-1-5.9-1.1-1.4-2.8-2.2-4.6-2.1-3.1 0-5.9 1.6-6.6 4.9-.1.8-.7 1.4-1.4 1.5l-7.9-.9c-.8-.1-1.3-.9-1.1-1.6V67c1.8-9.6 10.5-12.5 18.2-12.5 4 0 9.2 1.1 12.3 4.1s3.6 8.7 3.6 14v12.7c0 3.8 1.6 5.5 3.1 7.6.6.6.6 1.5.1 2.1l-.1.1-6.3 5.3z"/></defs></svg>