<?xml version="1.0" encoding="utf-8"?>
<svg xmlns="http://www.w3.org/2000/svg" width="47.717" height="24.316" viewBox="0 0 47.717 24.316"><path d="M51.377,6.568h-29.3A6.305,6.305,0,0,0,9.706,8.3V13.1A8.11,8.11,0,0,0,21.812,23.867H51.377c4.776-.017,4.21-3.891,4.227-8.667C55.569,10.441,56.136,6.585,51.377,6.568ZM12.364,8.3a3.647,3.647,0,1,1,7.295,0v2.657a8.094,8.094,0,0,0-7.295,0Zm3.647,16.483A6.583,6.583,0,1,1,22.594,18.2,6.59,6.59,0,0,1,16.011,24.787Zm35.209-2.049H22.733a8.106,8.106,0,0,0-.417-9.64V8.3c0-.208-.017-.4-.035-.608H51.221c4.151.017,3.063,3.369,3.081,7.521C54.284,19.369,55.372,22.721,51.221,22.738ZM15.994,12.647A5.558,5.558,0,1,0,21.552,18.2a5.558,5.558,0,0,0-5.558-5.558Zm.851,7.208H15.125l.226-1.563A.955.955,0,0,1,15,17.545a.971.971,0,0,1,.973-.973h.035a.974.974,0,0,1,.608,1.719l.226,1.563Zm15.3-4.568a4.99,4.99,0,0,1-1.806-.868,1.658,1.658,0,0,1-.556-1.268,1.753,1.753,0,0,1,.695-1.424,2.814,2.814,0,0,1,1.789-.556,2.952,2.952,0,0,1,1.337.3,2.164,2.164,0,0,1,.921.8,2.066,2.066,0,0,1,.313,1.112h-.955a1.35,1.35,0,0,0-.417-1.042,2.07,2.07,0,0,0-2.293-.069,1.04,1.04,0,0,0-.382.851.971.971,0,0,0,.382.764,3.853,3.853,0,0,0,1.285.556,7.122,7.122,0,0,1,1.424.556,2.3,2.3,0,0,1,.764.712,1.864,1.864,0,0,1,.243.955,1.706,1.706,0,0,1-.695,1.424,2.906,2.906,0,0,1-1.841.538,3.3,3.3,0,0,1-1.407-.3,2.31,2.31,0,0,1-1.007-.782,1.9,1.9,0,0,1-.365-1.129h.955a1.229,1.229,0,0,0,.486,1.042,2.217,2.217,0,0,0,1.32.382,2,2,0,0,0,1.164-.313,1.007,1.007,0,0,0,.4-.851,1,1,0,0,0-.382-.816,4.516,4.516,0,0,0-1.372-.573Zm6.079,0a4.99,4.99,0,0,1-1.806-.868,1.658,1.658,0,0,1-.556-1.268,1.753,1.753,0,0,1,.695-1.424,2.814,2.814,0,0,1,1.789-.556,2.952,2.952,0,0,1,1.337.3,2.164,2.164,0,0,1,.921.8,2.066,2.066,0,0,1,.313,1.112h-.955a1.35,1.35,0,0,0-.417-1.042,2.07,2.07,0,0,0-2.293-.069,1.061,1.061,0,0,0-.4.868.971.971,0,0,0,.382.764,3.853,3.853,0,0,0,1.285.556,7.122,7.122,0,0,1,1.424.556,2.3,2.3,0,0,1,.764.712,1.864,1.864,0,0,1,.243.955,1.706,1.706,0,0,1-.695,1.424,2.906,2.906,0,0,1-1.841.538,3.3,3.3,0,0,1-1.407-.3A2.309,2.309,0,0,1,36,17.562a1.9,1.9,0,0,1-.365-1.129h.955a1.229,1.229,0,0,0,.486,1.042,2.217,2.217,0,0,0,1.32.382,2,2,0,0,0,1.164-.313,1.007,1.007,0,0,0,.4-.851,1,1,0,0,0-.382-.816,4.66,4.66,0,0,0-1.355-.591Zm4.9,2.449H46.58v.782H42.133V11.24h.955Z" transform="translate(-7.9 -2)" fill="#fff"/></svg>